<?xml version="1.0" encoding="UTF-8" standalone="no"?>
<!-- Created with Inkscape (http://www.inkscape.org/) -->

<svg
   width="55mm"
   height="45mm"
   viewBox="0 0 125 125"
   version="1.1"
   id="svg5"
   xml:space="preserve"
   inkscape:version="1.2.2 (732a01da63, 2022-12-09)"
   sodipodi:docname="000.svg"
   xmlns:inkscape="http://www.inkscape.org/namespaces/inkscape"
   xmlns:sodipodi="http://sodipodi.sourceforge.net/DTD/sodipodi-0.dtd"
   xmlns="http://www.w3.org/2000/svg"
   xmlns:svg="http://www.w3.org/2000/svg"><sodipodi:namedview
     id="namedview7"
     pagecolor="#ffffff"
     bordercolor="#000000"
     borderopacity="0.25"
     inkscape:showpageshadow="2"
     inkscape:pageopacity="0.0"
     inkscape:pagecheckerboard="0"
     inkscape:deskcolor="#d1d1d1"
     inkscape:document-units="mm"
     showgrid="false"
     inkscape:zoom="0.68506594"
     inkscape:cx="397.77193"
     inkscape:cy="561.9897"
     inkscape:window-width="1920"
     inkscape:window-height="1017"
     inkscape:window-x="-8"
     inkscape:window-y="-8"
     inkscape:window-maximized="1"
     inkscape:current-layer="layer1" /><defs
     id="defs2"><clipPath
       clipPathUnits="userSpaceOnUse"
       id="clipPath27"><path
         d="M 0,432 H 432 V 0 H 0 Z"
         id="path25" /></clipPath><clipPath
       clipPathUnits="userSpaceOnUse"
       id="clipPath27-1"><path
         d="M 0,432 H 432 V 0 H 0 Z"
         id="path25-7" /></clipPath><clipPath
       clipPathUnits="userSpaceOnUse"
       id="clipPath27-1-7"><path
         d="M 0,432 H 432 V 0 H 0 Z"
         id="path25-7-5" /></clipPath></defs><g
     inkscape:label="Шар 1"
     inkscape:groupmode="layer"
     id="layer1"><g
       id="g1027"
       transform="translate(-134.83731,38.892965)"><g
         inkscape:label="Шар 1"
         id="layer1-3" /><g
         id="g21"
         transform="matrix(-0.35277776,0,0,-0.35277778,352.08164,128.06841)"><g
           id="g23"
           clip-path="url(#clipPath27-1-7)"
           transform="translate(225.52575,84.298454)"><g
             id="g29"
             transform="translate(382.1885,186.6899)"><path
               d="m 0,0 c -1.882,21.939 -9.721,37.194 -17.647,47.274 4.305,4.186 5.334,10.86 2.403,16.165 -9.467,17.133 -23.33,26.487 -35.778,31.59 2.229,5.873 0.038,12.612 -5.231,16.049 -8.626,5.626 -17.242,9.456 -25.735,11.451 2.767,3.654 5.44,7.671 7.255,11.386 14.904,30.513 19.279,33.953 32.262,44.164 5.087,3.998 6.61,11.063 3.621,16.796 -2.992,5.747 -9.654,8.551 -15.835,6.667 -25.869,-7.826 -40.271,-25.819 -51.847,-40.281 -3.869,-4.836 -7.525,-9.404 -10.786,-12.391 -2.631,-2.41 -5.468,-4.849 -8.5,-7.307 9.168,20.912 15.453,25.852 26.337,34.406 l 0.616,0.485 c 5.038,3.961 6.583,10.98 3.673,16.692 -2.911,5.709 -9.498,8.583 -15.661,6.837 -28.992,-8.216 -40.902,-25.381 -49.598,-37.916 -2.99,-4.309 -5.572,-8.032 -8.202,-10.442 -3.205,-2.936 -6.767,-6.088 -10.612,-9.39 -2.368,-0.334 -4.611,-1.295 -6.505,-2.811 l -5.262,-4.209 c -1.169,1.012 -2.523,1.83 -4.019,2.403 -5.43,2.066 -11.546,0.437 -15.22,-4.057 -6.143,-7.516 -10.452,-12.62 -14.384,-16.642 -0.773,0.487 -1.6,0.899 -2.473,1.227 -5.524,2.06 -11.675,0.329 -15.309,-4.312 -5.63,-7.192 -17.832,-17.079 -27.73,-20.512 -2.098,-0.727 -3.999,-1.973 -5.496,-3.602 -1.287,-1.4 -7.304,-8.455 -7.77,-18.38 -2.795,-3.415 -9.359,-10.377 -23.661,-21.569 -0.918,-0.598 -7.066,-4.414 -13.011,-3.34 -5.912,1.074 -11.876,-1.945 -14.506,-7.342 -5.02,-10.297 -8.913,-34.247 12.284,-51.195 2.179,-1.745 4.799,-2.748 7.514,-2.925 3.288,-5.741 10.453,-14.546 24.972,-19.56 1.417,-0.487 2.892,-0.734 4.385,-0.734 4.416,0 8.553,2.167 11.064,5.793 0.583,0.842 1.059,1.733 1.428,2.658 1.262,-0.66 2.56,-1.268 3.894,-1.823 0.077,-11.301 5.177,-19.394 8.835,-23.75 0.004,-0.912 0.079,-1.821 0.224,-2.719 0.447,-2.777 1.771,-6.752 5.485,-10.45 4.795,-9.691 11.835,-16.739 20.414,-20.423 4.682,-2.016 10.129,-1.187 14.014,2.098 2.399,-1.345 4.797,-2.297 7.17,-2.845 0.993,-0.231 2.014,-0.348 3.034,-0.348 4.135,0 7.98,1.862 10.553,5.109 3.211,4.055 3.805,9.674 1.515,14.314 -1.293,2.619 -2.34,5.545 -2.897,7.659 3.918,5.948 9.362,15.816 11.065,26.775 0.025,0.162 0.061,0.428 0.075,0.552 0.042,0.336 1.108,8.253 7.763,10.37 1.466,0.465 2.823,0.902 4.099,1.318 l 5.487,-12.78 c 0.53,-1.234 1.241,-2.375 2.099,-3.389 -0.103,-1.258 -0.03,-2.529 0.226,-3.772 l 4.044,-19.68 c 0.162,-0.785 0.399,-1.556 0.706,-2.303 -0.295,-0.84 -0.503,-1.704 -0.617,-2.58 l -2.818,-21.332 c -0.189,-1.433 -0.14,-2.886 0.134,-4.299 -0.623,-1.097 -1.085,-2.278 -1.375,-3.519 l -5.41,-23.28 c -1.201,-5.165 0.754,-10.572 4.982,-13.775 10.006,-7.58 23.116,-11.755 36.913,-11.755 16.291,0 32.985,5.497 49.621,16.342 0.503,0.294 1.059,0.66 1.689,1.115 l 0.191,0.125 c 0.178,0.116 0.356,0.232 0.536,0.356 0.578,0.394 1.132,0.849 1.687,1.384 4.478,3.64 12.15,10.7 16.017,15.71 5.55,5.9 11.116,13.195 16.122,21.132 1.386,1.814 4.54,6.188 7.603,11.068 1.726,-1.692 3.93,-2.932 6.455,-3.508 0.984,-0.226 1.994,-0.34 3.006,-0.34 5.574,0 10.491,3.354 12.526,8.544 8.553,21.802 7.54,42.172 4.454,56.968 0.984,0.005 2.005,0.102 3.01,0.331 C -3.915,-12.796 0.569,-6.66 0,0"
               style="fill:#ffffff;fill-opacity:1;fill-rule:nonzero;stroke:none"
               id="path31" /></g><g
             id="g33"
             transform="translate(376.3564,186.1596)"><path
               d="m 0,0 c -2.222,25.915 -13.265,41.696 -22.002,50.308 2.067,-0.338 4.246,0.227 5.916,1.676 2.586,2.242 3.251,5.987 1.596,8.982 -11.055,20.002 -28.676,28.524 -42.593,32.129 2.824,0.128 5.377,1.907 6.429,4.629 1.232,3.192 0.064,6.811 -2.801,8.681 -14.052,9.166 -25.929,11.765 -34.381,12.036 0.208,0.22 0.429,0.45 0.63,0.664 4.436,4.748 10.202,12.174 13.081,18.068 15.531,31.793 20.562,35.749 34.008,46.32 2.739,2.154 3.557,5.953 1.948,9.044 -1.608,3.092 -5.189,4.602 -8.526,3.59 -24.025,-7.269 -37.759,-24.429 -48.794,-38.217 -4.028,-5.031 -7.83,-9.783 -11.442,-13.092 -9.38,-8.591 -19.994,-16.314 -28.548,-22.053 -0.387,0.294 -0.851,0.609 -1.395,0.939 4.05,5.26 8.556,13.771 9.71,16.549 10.807,26.02 18.042,31.707 30.03,41.127 l 0.62,0.487 c 2.721,2.14 3.549,5.904 1.978,8.988 -1.572,3.083 -5.108,4.623 -8.434,3.682 -26.847,-7.61 -37.57,-23.062 -46.185,-35.478 -3.207,-4.621 -5.976,-8.612 -9.112,-11.484 -3.76,-3.445 -7.928,-7.114 -12.379,-10.904 -1.765,0.128 -3.576,-0.384 -5.054,-1.566 l -10.769,-8.618 c -0.332,2.618 -2.075,4.889 -4.6,5.855 -2.918,1.117 -6.223,0.236 -8.201,-2.183 -8.255,-10.099 -13.645,-16.431 -19.563,-21.63 -0.707,1.957 -2.242,3.566 -4.278,4.327 -2.964,1.107 -6.298,0.167 -8.246,-2.321 -6.309,-8.06 -19.473,-18.698 -30.583,-22.55 -1.132,-0.392 -2.149,-1.059 -2.96,-1.94 -0.736,-0.801 -6.551,-7.418 -6.139,-16.306 -2.159,-2.981 -8.751,-10.821 -26.219,-24.471 -0.783,-0.541 -8.98,-6.01 -17.77,-4.416 -3.193,0.573 -6.385,-1.037 -7.809,-3.955 -4.267,-8.751 -7.546,-29.128 10.582,-43.624 1.683,-1.345 3.88,-1.873 5.99,-1.437 l 1.355,0.28 c 0.65,-1.705 1.887,-4.317 4.127,-7.218 3.108,-4.025 8.954,-9.562 19.154,-13.084 0.777,-0.268 1.575,-0.397 2.364,-0.397 2.329,0 4.577,1.126 5.959,3.121 1.85,2.671 1.697,6.246 -0.376,8.749 -1.051,1.27 -2.306,3.194 -3.129,6.551 0.065,-0.083 0.124,-0.164 0.19,-0.248 4.432,-5.653 10.63,-10.053 17.924,-12.725 0.805,-0.294 1.635,-0.437 2.457,-0.441 -0.143,-0.472 -0.257,-0.957 -0.301,-1.464 -1.163,-13.237 6.152,-21.926 8.895,-24.687 -0.217,-1.221 -0.263,-2.546 -0.042,-3.922 0.339,-2.109 1.408,-5.021 4.45,-7.706 3.065,-6.548 8.507,-14.47 17.772,-18.449 2.608,-1.12 5.628,-0.612 7.729,1.294 1.117,1.014 1.865,2.325 2.191,3.739 2.983,-2.434 6.483,-4.574 10.215,-5.435 0.541,-0.125 1.086,-0.186 1.627,-0.186 2.185,0 4.29,0.994 5.683,2.753 1.738,2.196 2.054,5.199 0.815,7.709 -1.822,3.692 -3.593,8.772 -3.916,11.771 3.05,4.321 9.725,14.84 11.518,26.369 0.021,0.128 0.031,0.203 0.044,0.332 0.058,0.497 1.541,12.212 12.051,15.554 3.103,0.985 6.272,2.015 9.43,3.102 0.001,-0.003 0.001,-0.005 0.002,-0.008 l 7.74,-18.025 c 0.659,-1.534 1.826,-2.794 3.307,-3.565 0.013,-0.007 0.043,-0.022 0.062,-0.032 -0.745,-1.449 -1.003,-3.124 -0.665,-4.765 l 4.043,-19.68 c 0.261,-1.27 0.861,-2.42 1.703,-3.362 -0.82,-1.021 -1.366,-2.252 -1.542,-3.584 l -2.816,-21.332 c -0.215,-1.629 0.14,-3.242 0.942,-4.609 -1.128,-0.989 -1.943,-2.307 -2.29,-3.801 l -5.412,-23.282 c -0.648,-2.785 0.403,-5.69 2.683,-7.417 8.14,-6.167 19.541,-10.497 33.164,-10.497 13.564,0 29.335,4.314 46.271,15.362 0.384,0.206 0.91,0.556 1.535,1.014 0.241,0.163 0.481,0.312 0.723,0.478 0.382,0.261 0.723,0.565 1.042,0.888 4.711,3.797 12.251,10.871 15.464,15.144 5.573,5.891 11.015,13.044 15.902,20.857 3.939,5.122 12.042,20.239 14.789,27.417 0.205,-3.075 0.215,-6.65 -0.03,-9.986 -0.267,-3.575 2.119,-6.808 5.615,-7.605 0.54,-0.123 1.08,-0.183 1.615,-0.183 2.924,0 5.636,1.779 6.744,4.602 15.505,39.527 -2.458,73.881 -3.211,75.287 -0.175,0.333 -0.331,0.744 -0.464,1.196 3.739,-3.527 6.347,-8.77 7.161,-10.887 1.278,-3.385 4.858,-5.313 8.385,-4.51 C -2.089,-6.886 0.309,-3.605 0,0"
               style="fill:#231f20;fill-opacity:1;fill-rule:nonzero;stroke:none"
               id="path35" /></g><g
             id="g37"
             transform="translate(355.5327,202.5489)"><path
               d="m 0,0 c 9.028,-4.887 13.604,-17 13.604,-17 -3.396,39.694 -29.216,53.029 -29.216,53.029 0,0 -22.529,12.651 -12.01,15.778 C -18.014,54.685 0,41.06 0,41.06 c -18.159,32.861 -57.004,30.977 -57.004,30.977 0,0 -15.033,0.29 -8.8,7.931 6.253,7.661 29.216,3.975 29.216,3.975 -25.117,16.379 -41.433,9.504 -41.433,9.504 -1.346,-1.449 -2.816,-2.919 -4.411,-4.369 -5.462,-5.066 -12.092,-10.107 -17.845,-14.19 2.208,-1.193 4.096,-2.309 5.335,-3.07 6.971,2.705 11.91,5.106 11.91,5.106 -0.559,-2.589 -1.408,-6.751 -3.313,-10.043 53.733,-35.76 65.701,-93.406 68.434,-135.771 0.041,-0.621 0.083,-1.221 0.124,-1.801 0.083,0.31 0.187,0.683 0.311,1.077 0.021,0.144 0.062,0.31 0.103,0.476 1.471,5.446 4.639,16.71 10.954,9.255 4.328,-5.093 3.003,-22.631 3.003,-22.631 14.473,36.857 -2.858,69.262 -2.858,69.262 C -9.049,-8.013 -9.815,5.321 0,0"
               style="fill:#fff200;fill-opacity:1;fill-rule:nonzero;stroke:none"
               id="path39" /></g><g
             id="g41"
             transform="translate(91.0394,216.5174)"><path
               d="M 0,0 C 2.04,-1.029 8.469,-1.628 10.269,-1.766 10.577,-1.8 10.731,-1.817 10.731,-1.817 5.691,-4.577 2.623,-9.154 2.194,-9.617 1.457,-9.154 0.823,-8.674 0,-7.697 -0.309,-7.32 -0.549,-6.943 -0.754,-6.583 -2.811,-2.863 0,0 0,0 m 170.417,1.543 c -0.291,0.548 -0.634,1.063 -1.011,1.508 -0.326,-0.223 -0.652,-0.462 -1.029,-0.685 -2.503,-1.629 -5.828,-3.463 -9.514,-5.28 -0.703,-0.343 -1.406,-0.703 -2.126,-1.046 -2.914,-1.389 -6,-2.777 -9.103,-4.063 -0.771,-0.326 -1.56,-0.669 -2.331,-0.96 -1.526,-0.617 -3.034,-1.2 -4.526,-1.731 -1.491,-0.566 -2.948,-1.063 -4.354,-1.509 l -0.137,-0.069 c -1.8,-0.582 -3.532,-1.08 -5.075,-1.474 l 3.292,5.52 15.651,6.634 2.109,0.892 -1.474,4.697 -1.955,6.206 -0.017,-0.017 -20.588,-7.303 3.6,5.228 14.074,5.212 h 0.017 l 2.109,0.788 -3.926,12.875 -21.223,-6.583 3.103,4.577 14.914,5.469 1.577,0.582 0.583,0.206 h 0.017 l -4.011,12.651 c 0,0 -0.823,-0.342 -2.126,-0.891 l -3.994,-1.766 -13.972,-6.017 c -0.137,-0.068 -0.257,-0.12 -0.36,-0.171 l -0.017,-0.017 -0.034,-0.018 5.006,5.949 c 7.765,3.943 15.943,8.469 21.977,12.686 0.274,0.188 0.548,0.394 0.823,0.583 0.805,0.583 1.56,1.148 2.28,1.714 h 0.017 l -5.143,6.223 -11.366,13.748 -0.497,0.635 -23.366,-14.606 c 0.909,0.72 15.703,12.514 23.966,18.617 0.429,0.291 0.84,0.6 1.269,0.874 2.057,1.338 4.251,2.435 4.851,2.829 -0.463,0.308 -0.908,0.6 -1.371,0.874 -0.412,0.24 -0.806,0.48 -1.217,0.686 -0.275,0.137 -0.532,0.257 -0.789,0.411 -0.48,0.24 -0.943,0.48 -1.389,0.652 -0.377,0.171 -0.754,0.343 -1.114,0.463 -0.274,0.12 -0.548,0.205 -0.788,0.291 -0.378,0.12 -0.738,0.24 -1.098,0.343 -0.514,0.154 -1.011,0.274 -1.542,0.36 -3.6,0.703 -7.115,0.223 -10.389,-1.8 -2.829,-1.749 -5.503,-4.714 -7.869,-9.137 -0.154,-0.292 -0.308,-0.583 -0.462,-0.875 0.034,0.206 0.068,0.36 0.102,0.549 1.046,6.069 3.463,9.583 5.863,11.863 1.166,1.097 2.332,1.886 3.326,2.554 l -4.166,4.2 -2.468,2.503 -26.623,-21.309 c 2.074,4.595 3.583,8.898 4.44,12.721 0.463,2.005 0.754,3.908 0.84,5.622 -1.869,-2.297 -3.652,-4.422 -5.349,-6.428 -0.12,-0.137 -0.24,-0.275 -0.343,-0.429 C 76.234,76.749 69.857,70.474 58.8,63.634 c -0.274,-0.171 -0.549,-0.36 -0.823,-0.531 -0.12,-0.069 -0.188,-0.12 -0.291,-0.189 v -0.017 c -0.652,-0.394 -1.303,-0.788 -1.989,-1.183 1.457,2.332 2.452,4.903 3.103,7.646 v 0.034 c 0.12,0.532 0.223,1.063 0.326,1.612 0.188,0.994 0.325,2.023 0.428,3.051 0.052,0.549 0.086,1.097 0.12,1.646 -7.32,-9.326 -21.497,-20.623 -33.925,-24.926 0,0 0,-0.017 -0.018,-0.034 -0.017,-0.017 -0.051,-0.035 -0.068,-0.069 -0.069,-0.085 -0.172,-0.206 -0.309,-0.36 -0.137,-0.188 -0.308,-0.411 -0.497,-0.686 -0.291,-0.394 -0.634,-0.874 -0.96,-1.457 -0.068,-0.12 -0.12,-0.24 -0.188,-0.36 C 23.691,47.777 23.674,47.76 23.64,47.726 23.589,47.657 23.554,47.571 23.503,47.503 23.486,47.434 23.451,47.349 23.417,47.28 23.126,46.749 22.834,46.148 22.577,45.514 22.474,45.257 22.389,44.983 22.286,44.691 22.217,44.4 22.114,44.074 22.029,43.766 21.994,43.697 21.96,43.611 21.943,43.526 21.874,43.286 21.823,43.046 21.789,42.789 21.771,42.634 21.737,42.48 21.72,42.326 21.651,41.966 21.617,41.589 21.566,41.211 V 40.92 c -0.017,-0.377 -0.035,-0.72 0,-1.114 v -0.035 c 0,-0.668 0.068,-1.354 0.205,-2.04 -0.017,-0.034 -0.034,-0.068 -0.051,-0.103 -0.103,-0.222 -0.377,-0.754 -0.943,-1.611 -0.497,-0.754 -1.2,-1.714 -2.211,-2.966 -0.292,-0.343 -0.6,-0.737 -0.96,-1.131 C 17.28,31.526 16.903,31.114 16.509,30.668 15.309,29.349 13.886,27.823 12.12,26.091 11.571,25.56 10.971,24.977 10.337,24.377 10.269,24.291 10.166,24.189 10.08,24.103 9.669,23.743 9.223,23.331 8.794,22.937 8.314,22.474 7.817,22.011 7.303,21.566 6.891,21.171 6.446,20.794 6.017,20.4 5.589,20.006 5.126,19.594 4.646,19.183 3.84,18.463 2.966,17.726 2.091,16.988 2.04,16.971 2.023,16.954 1.971,16.886 1.457,16.457 0.926,15.994 0.36,15.531 c -0.411,-0.342 -0.823,-0.685 -1.251,-1.028 -2.075,-1.715 -4.303,-3.515 -6.72,-5.4 0,0 -10.852,-8.023 -23.4,-5.743 0,0 -0.035,-0.069 -0.086,-0.189 -0.069,-0.154 -0.172,-0.394 -0.292,-0.72 -0.068,-0.137 -0.137,-0.291 -0.188,-0.48 -0.172,-0.411 -0.343,-0.925 -0.532,-1.508 -0.034,-0.155 -0.085,-0.326 -0.137,-0.497 -0.085,-0.223 -0.154,-0.463 -0.205,-0.703 -0.24,-0.891 -0.48,-1.92 -0.686,-3.052 -0.069,-0.325 -0.103,-0.668 -0.172,-1.045 -0.034,-0.309 -0.085,-0.652 -0.12,-0.977 -0.034,-0.378 -0.068,-0.772 -0.102,-1.183 -0.498,-7.063 1.217,-16.526 11.125,-24.429 l 35.915,7.406 c 0,0 18.445,30.257 63.24,33.24 0.548,0.034 1.097,0.068 1.645,0.068 0.755,0.035 1.526,0.069 2.297,0.103 0.909,0.035 1.818,0.052 2.743,0.052 1.457,0 2.932,-0.017 4.44,-0.086 1.612,-0.034 3.275,-0.137 4.937,-0.257 0,0 -26.691,17.88 -80.897,-6.069 0,0 -6.703,-1.783 -13.645,1.492 0,0 -2.949,-2.589 -3.823,-6.36 -0.017,-0.069 -0.017,-0.137 -0.052,-0.223 -0.137,-1.063 -0.223,-2.092 -0.068,-3 0.137,-1.097 0.531,-2.28 1.268,-3.48 0.069,-0.137 0.137,-0.24 0.223,-0.36 0,0 -0.051,-0.017 -0.137,-0.034 -0.497,-0.155 -2.503,-0.635 -4.714,0.617 0,0 -21.806,-8.555 -22.303,3.291 -0.034,0.926 0.034,1.954 0.291,3.154 0.017,0.052 0.017,0.086 0.035,0.138 0.12,0.514 0.24,1.045 0.394,1.628 0.051,0.206 0.12,0.411 0.188,0.634 0,0 -0.017,-0.377 0.018,-0.96 v -0.034 c 0.017,-0.086 0.017,-0.171 0.034,-0.257 0,-0.086 0.017,-0.189 0.034,-0.292 0.052,-0.308 0.12,-0.634 0.223,-0.977 0.96,-3.223 4.663,-7.68 19.097,-1.474 0,0 1.234,4.44 4.252,8.709 0.24,0.343 0.48,0.668 0.737,1.011 0.514,0.669 1.08,1.32 1.697,1.937 0.308,0.309 0.634,0.617 0.96,0.909 0,0 0.308,-0.189 0.84,-0.446 1.817,-0.891 6.291,-2.794 10.046,-2.006 4.148,0.857 9,4.458 19.457,7.578 0.257,0.085 0.531,0.154 0.788,0.239 0.395,0.103 0.789,0.223 1.2,0.326 0.257,0.086 0.497,0.137 0.755,0.206 0.994,0.274 2.04,0.531 3.137,0.788 0,0 -4.886,1.509 -6.772,6.395 0,0 7.337,-4.509 12.412,-2.623 0,0 4.491,9.926 13.68,14.451 0,0 6.274,2.572 10.714,2.572 4.337,0 21.429,-0.154 34.303,9.223 0.274,0.188 0.514,0.377 0.771,0.566 0,-0.018 0,-0.018 -0.017,-0.069 C 97.663,45.789 95.863,42.48 92.794,38.383 90.36,35.109 87.12,31.337 83.211,28.08 82.817,27.754 82.406,27.429 81.96,27.086 81.514,26.743 81.051,26.383 80.589,26.057 80.246,25.8 79.92,25.577 79.594,25.354 c -0.548,-0.36 -1.08,-0.703 -1.645,-1.011 -0.12,-0.086 -0.223,-0.172 -0.343,-0.206 -0.257,-0.171 -0.532,-0.309 -0.789,-0.463 -0.446,-0.223 -0.874,-0.463 -1.337,-0.686 -0.171,-0.102 -1.32,-0.616 -1.303,-0.634 0,-0.017 -2.383,-0.891 -2.383,-0.925 2.109,-0.378 4.269,-0.892 6.48,-1.509 0.326,-0.086 0.652,-0.171 0.977,-0.274 15.309,-5.023 24.258,-15.172 24.258,-15.172 -0.069,0.017 -0.138,0.017 -0.206,0.034 -17.572,3.018 -27.48,-0.891 -27.48,-0.891 0.703,-0.188 1.388,-0.377 2.057,-0.6 1.697,-0.514 3.291,-1.114 4.783,-1.834 3.24,-1.577 6.068,-3.737 8.52,-6.875 L 91.2,-5.709 c 2.743,-3.96 5.297,-18.12 -0.154,-24.377 -0.086,-0.12 -0.206,-0.24 -0.309,-0.36 -4.2,-2.554 -11.246,-8.965 -13.868,-23.743 -0.086,-0.48 -0.172,-0.96 -0.24,-1.457 0,0 0,-0.377 -0.052,-1.046 v -0.154 c 0,-0.034 -0.017,-0.068 -0.017,-0.085 -0.086,-1.355 -0.309,-3.635 -0.874,-6.309 v -0.017 c 0,-0.035 0,-0.069 -0.017,-0.103 v -0.034 c -0.035,-0.24 -0.12,-0.515 -0.189,-0.772 -0.034,-0.137 -0.069,-0.291 -0.103,-0.428 -0.103,-0.377 -0.188,-0.772 -0.308,-1.132 0,-0.051 0,-0.085 -0.035,-0.137 0,-0.068 -0.017,-0.137 -0.051,-0.206 -0.069,-0.291 -0.172,-0.617 -0.257,-0.925 -0.052,-0.12 -0.086,-0.257 -0.137,-0.378 -0.069,-0.222 -0.138,-0.445 -0.223,-0.651 -0.035,-0.154 -0.103,-0.309 -0.155,-0.463 -0.068,-0.171 -0.137,-0.36 -0.222,-0.548 v -0.017 c -0.12,-0.309 -0.24,-0.635 -0.378,-0.943 l -0.017,-0.018 c -0.188,-0.48 -0.411,-0.959 -0.651,-1.44 -0.086,-0.171 -0.172,-0.325 -0.257,-0.479 -0.326,-0.635 -0.686,-1.252 -1.063,-1.852 -0.292,-0.446 -0.583,-0.874 -0.909,-1.286 -0.103,-0.154 -0.223,-0.308 -0.36,-0.463 -0.103,-0.137 -0.205,-0.274 -0.325,-0.411 -0.069,-0.086 -0.155,-0.171 -0.24,-0.257 -0.275,-0.326 -0.583,-0.617 -0.892,-0.926 -0.24,-0.24 -0.514,-0.497 -0.806,-0.72 0,0 -4.8,-5.057 -22.508,-1.577 0,0 -1.834,-2.417 -0.086,-5.246 h 0.017 c 0.497,-0.823 1.252,-1.628 2.452,-2.451 2.245,-5.332 6.137,-11.537 12.308,-15.12 0.789,-0.463 1.595,-0.891 2.435,-1.269 0,0 0,0.052 -0.018,0.103 -0.068,0.172 -0.171,0.497 -0.308,0.977 -0.052,0.103 -0.069,0.257 -0.103,0.378 0,0.068 -0.017,0.12 -0.069,0.188 -0.034,0.154 -0.085,0.343 -0.137,0.531 -0.103,0.378 -0.205,0.789 -0.343,1.218 -0.102,0.445 -0.222,0.925 -0.325,1.388 -0.035,0.206 -0.103,0.429 -0.137,0.652 -0.052,0.154 -0.069,0.308 -0.103,0.48 -0.035,0.051 -0.052,0.137 -0.069,0.205 -0.394,1.886 -0.703,3.892 -0.703,5.503 0,0 3.189,-1.457 6.086,0.874 0,0 5.4,-7.645 11.64,-11.074 1.149,-0.634 2.314,-1.148 3.497,-1.423 0,0 0,0.035 -0.017,0.052 -0.017,0 -0.017,0.017 -0.034,0.034 0,0 -0.017,0 -0.017,0.017 0,0.052 -0.018,0.086 -0.052,0.155 0,0.017 -0.034,0.034 -0.051,0.085 -0.086,0.154 -0.155,0.36 -0.292,0.634 -0.823,1.783 -2.554,5.829 -3.531,9.875 -0.12,0.497 -0.223,0.994 -0.343,1.491 -0.051,0.378 -0.12,0.772 -0.171,1.149 V -90 c -0.206,1.406 -0.275,2.76 -0.103,3.926 0,0 9.514,12 11.554,25.045 0,0 1.766,16.492 17.057,21.669 3.394,1.148 11.76,4.217 21.737,4.183 11.76,0 28.423,5.657 38.915,17.794 v 0.017 c 0.822,0.926 1.611,1.92 2.331,2.949 1.166,1.611 1.971,3.257 2.486,4.903 v 0.017 c 0.291,0.891 0.497,1.766 0.617,2.64 0.497,3.24 -0.103,6.223 -1.286,8.4"
               style="fill:#00aeef;fill-opacity:1;fill-rule:nonzero;stroke:none"
               id="path43" /></g><g
             id="g45"
             transform="translate(235.1465,243.4851)"><path
               d="m 0,0 -21.224,-6.585 -3.106,-4.576 23.544,6.034 2.593,-8.533 2.107,0.781 z"
               style="fill:#6dcff6;fill-opacity:1;fill-rule:nonzero;stroke:none"
               id="path47" /></g><g
             id="g49"
             transform="translate(183.8509,225.6201)"><path
               d="m 0,0 c -1.663,0.12 -3.326,0.223 -4.937,0.257 -1.509,0.069 -2.983,0.086 -4.44,0.086 -0.926,0 -1.834,-0.034 -2.743,-0.051 -0.771,-0.035 -1.543,-0.069 -2.297,-0.103 -0.514,-0.035 -1.029,-0.052 -1.543,-0.086 -0.034,0 -0.069,0.017 -0.103,0.017 -13.217,2.4 -34.646,3.069 -65.228,-10.44 0,0 -0.498,-0.257 -1.252,-0.549 -1.8,0.138 -8.228,0.737 -10.268,1.766 0,0 -2.812,-2.863 -0.755,-6.583 0.206,-0.36 0.446,-0.737 0.755,-1.114 -1.286,-1.611 -0.652,-3.652 -0.703,-3.668 -0.926,-0.292 -3.532,1.422 -3.617,2.434 0.085,0.017 0.137,0.034 0.137,0.034 -0.086,0.12 -0.155,0.223 -0.223,0.36 -0.737,1.2 -1.132,2.383 -1.269,3.48 -0.154,0.909 -0.068,1.937 0.069,3 0.034,0.086 0.034,0.154 0.051,0.223 0.875,3.771 3.823,6.36 3.823,6.36 6.943,-3.274 13.646,-1.491 13.646,-1.491 C -26.691,17.88 0,0 0,0"
               style="fill:#6dcff6;fill-opacity:1;fill-rule:nonzero;stroke:none"
               id="path51" /></g><g
             id="g53"
             transform="translate(93.2338,206.9)"><path
               d="m 0,0 c 0,0 -5.52,-4.148 -12.343,-5.314 -2.554,-0.446 -25.286,-6.103 -21.188,9.908 0.497,-11.845 22.302,-3.291 22.302,-3.291 2.212,-1.252 4.218,-0.771 4.715,-0.617 0.085,0.017 0.137,0.034 0.137,0.034 C -6.463,0.84 -6.531,0.943 -6.6,1.08 -6.309,0.823 -4.457,2.074 -2.949,3.034 -2.743,2.674 -2.503,2.297 -2.194,1.92 -1.372,0.943 -0.737,0.463 0,0"
               style="fill:#6dcff6;fill-opacity:1;fill-rule:nonzero;stroke:none"
               id="path55" /></g><g
             id="g57"
             transform="translate(159.1339,138.67)"><path
               d="m 0,0 c 0,0 -4.804,-5.052 -22.508,-1.574 0,0 -1.841,-2.425 -0.091,-5.248 17.114,-3.203 21.813,1.695 21.813,1.695 C 5.499,0.116 7.155,10.007 7.59,14.605 6.573,9.757 4.455,3.716 0,0"
               style="fill:#6dcff6;fill-opacity:1;fill-rule:nonzero;stroke:none"
               id="path59" /></g><g
             id="g61"
             transform="translate(229.3134,255.2604)"><path
               d="M 0,0 2.632,-8.323 4.789,-7.534 0.786,5.127 c 0,0 -17.058,-7.144 -20.44,-8.854 l -5.011,-5.963 z"
               style="fill:#6dcff6;fill-opacity:1;fill-rule:nonzero;stroke:none"
               id="path63" /></g><g
             id="g65"
             transform="translate(262.1268,207.0214)"><path
               d="m 0,0 v -0.021 c -0.518,-1.635 -1.325,-3.292 -2.485,-4.907 -0.724,-1.015 -1.511,-2.009 -2.34,-2.94 4.145,7.225 3.81,13.562 2.382,15.281 -8.097,-5.529 -29.465,-14.37 -40.729,-17.186 l 3.292,5.508 5.218,1.532 c 1.408,0.455 2.857,0.952 4.348,1.511 1.491,0.539 3.002,1.118 4.535,1.74 0.766,0.31 1.553,0.621 2.319,0.952 3.106,1.284 6.191,2.671 9.111,4.059 0.724,0.352 1.428,0.704 2.132,1.056 3.686,1.822 6.999,3.644 9.504,5.28 0.373,0.227 0.704,0.455 1.036,0.683 C 0.538,9.898 1.656,5.073 0,0"
               style="fill:#6dcff6;fill-opacity:1;fill-rule:nonzero;stroke:none"
               id="path67" /></g><g
             id="g69"
             transform="translate(192.6966,265.9916)"><path
               d="m 0,0 c -3.137,-11.691 -11.229,-22.817 -21.668,-28.646 l -1.715,-0.908 c -2.211,0.617 -4.371,1.131 -6.48,1.508 2.285,0.858 4.577,2.023 5.023,2.246 0.257,0.154 2.229,1.32 2.777,1.68 0.326,0.223 0.652,0.446 0.994,0.703 0.463,0.325 0.926,0.686 1.372,1.029 0.446,0.342 0.857,0.668 1.251,0.994 3.909,3.257 7.149,7.028 9.583,10.302 3.069,4.098 4.869,7.406 5.143,7.921 C -2.469,-2.263 -1.2,-0.891 0,0"
               style="fill:#6dcff6;fill-opacity:1;fill-rule:nonzero;stroke:none"
               id="path71" /></g><g
             id="g73"
             transform="translate(116.0038,262.1705)"><path
               d="m 0,0 c 12.424,4.307 26.607,15.592 33.917,24.93 -0.022,-0.416 -0.059,-0.825 -0.092,-1.236 0.475,2.029 0.763,4.152 0.878,6.363 C 27.393,20.719 13.21,9.434 0.786,5.127 c 0,0 -4.478,-4.89 -4.211,-11.067 C -2.194,-2.392 0,0 0,0"
               style="fill:#6dcff6;fill-opacity:1;fill-rule:nonzero;stroke:none"
               id="path75" /></g><g
             id="g77"
             transform="translate(59.248,214.7533)"><path
               d="m 0,0 c 0.253,-0.046 0.5,-0.063 0.752,-0.1 0.15,0.747 0.338,1.529 0.614,2.39 0,0 -0.1,-1.144 0.301,-2.512 11.825,-1.332 21.731,5.958 21.731,5.958 0.553,0.432 1.082,0.851 1.616,1.272 0.951,1.355 2.075,2.69 3.394,3.854 0,0 0.32,-0.18 0.851,-0.441 20.621,16.878 25.514,26.545 25.514,26.545 -0.567,0.772 -0.958,1.349 -1.207,2.533 -2.243,-4.026 -10.084,-13.57 -29.382,-28.637 0,0 -10.85,-8.013 -23.398,-5.735 0,0 -2.087,-4.291 -2.523,-10.353 C -0.979,-2.013 0,0 0,0"
               style="fill:#6dcff6;fill-opacity:1;fill-rule:nonzero;stroke:none"
               id="path79" /></g><g
             id="g81"
             transform="translate(153.7502,113.015)"><path
               d="m 0,0 c -0.849,0.373 -1.656,0.808 -2.443,1.263 -0.601,1.553 -1.864,8.676 -1.388,10.726 0,0 0.622,-0.248 1.512,-0.373 0,-1.615 0.311,-3.623 0.704,-5.508 0.021,-0.062 0.041,-0.145 0.062,-0.207 0.041,-0.165 0.062,-0.31 0.104,-0.476 C -1.408,5.197 -1.346,4.99 -1.305,4.783 -1.201,4.307 -1.077,3.831 -0.973,3.396 -0.849,2.961 -0.745,2.547 -0.642,2.174 -0.58,1.988 -0.538,1.802 -0.497,1.636 -0.455,1.574 -0.435,1.512 -0.435,1.449 -0.393,1.325 -0.373,1.18 -0.331,1.077 -0.186,0.601 -0.083,0.269 -0.021,0.104 0,0.041 0,0 0,0"
               style="fill:#6dcff6;fill-opacity:1;fill-rule:nonzero;stroke:none"
               id="path83" /></g><g
             id="g85"
             transform="translate(172.655,113.015)"><path
               d="m 0,0 c -1.18,0.269 -2.34,0.787 -3.499,1.408 -1.222,3.52 -3.086,11.492 -2.671,14.619 0,0 0.993,0.642 1.553,1.408 -0.166,-1.181 -0.104,-2.526 0.103,-3.934 V 13.48 c 0.062,-0.373 0.124,-0.766 0.186,-1.139 0.104,-0.497 0.207,-0.994 0.332,-1.491 C -3.023,6.792 -1.284,2.754 -0.455,0.973 -0.331,0.704 -0.248,0.497 -0.166,0.331 -0.145,0.29 -0.124,0.269 -0.124,0.249 -0.083,0.186 -0.062,0.145 -0.062,0.104 -0.041,0.083 -0.041,0.062 -0.021,0.041 0,0.021 0,0 0,0"
               style="fill:#6dcff6;fill-opacity:1;fill-rule:nonzero;stroke:none"
               id="path87" /></g><g
             id="g89"
             transform="translate(167.6166,159.6716)"><path
               d="M 0,0 C 0,-0.034 -0.017,-0.068 -0.017,-0.086 -0.017,0 0,0.086 0,0.154 0.051,0.823 0.051,1.2 0.051,1.2 0.12,1.697 0.206,2.177 0.292,2.657 c 2.622,14.777 9.362,21.912 13.562,24.466 0.103,0.12 0.571,0.748 0.656,0.868 5.452,6.257 2.856,19.186 0.113,23.146 l -0.017,0.017 c -2.452,3.138 -5.28,5.298 -8.52,6.875 C 4.594,58.749 3,59.349 1.303,59.863 1.2,60.017 1.114,60.137 1.029,60.257 13.61,60.671 22.145,49.855 17.491,34.537 c -0.081,-0.265 5.473,-0.523 5.473,-0.523 3.664,0.72 6.913,0.779 9.68,0.072 C 23.67,29.938 7.433,22.438 0,0"
               style="fill:#6dcff6;fill-opacity:1;fill-rule:nonzero;stroke:none"
               id="path91" /></g><g
             id="g93"
             transform="translate(143.5159,272.355)"><path
               d="m 0,0 c 15.24,8.966 24.129,16.796 38.396,34.251 -0.007,-0.162 -0.031,-0.336 -0.042,-0.501 0.459,2.011 0.749,3.902 0.828,5.628 C 25.554,22.705 17.254,14.244 3.215,5.875 2.286,3.764 1.227,1.955 0,0"
               style="fill:#6dcff6;fill-opacity:1;fill-rule:nonzero;stroke:none"
               id="path95" /></g><g
             id="g97"
             transform="translate(222.5185,291.9348)"><path
               d="m 0,0 c -8.525,-6.31 -24.018,-18.671 -24.018,-18.671 l 23.416,14.645 14.66,-17.77 c 1.113,0.775 2.178,1.542 3.129,2.286 L 0.691,0.486 C 0.457,0.326 0.223,0.165 0,0"
               style="fill:#6dcff6;fill-opacity:1;fill-rule:nonzero;stroke:none"
               id="path99" /></g><g
             id="g101"
             transform="translate(219.2648,219.3831)"><path
               d="m 0,0 -3.598,-5.21 23.408,7.386 2.112,-6.659 2.127,0.902 -3.453,10.884 z"
               style="fill:#6dcff6;fill-opacity:1;fill-rule:nonzero;stroke:none"
               id="path103" /></g><g
             id="g105"
             transform="translate(229.4109,300.7586)"><path
               d="m 0,0 c -0.601,-0.393 -2.795,-1.491 -4.845,-2.837 -8.821,4.224 -17.58,4.39 -23.957,-8.365 0.174,1.488 0.194,1.663 0.567,2.864 -0.041,-0.186 0.24,0.78 0.219,0.573 2.464,4.928 5.301,8.179 8.324,10.043 3.272,2.029 6.792,2.505 10.395,1.801 C -8.779,3.996 -8.283,3.872 -7.765,3.727 -7.392,3.624 -7.04,3.499 -6.667,3.375 -6.419,3.292 -6.15,3.209 -5.881,3.085 -5.508,2.961 -5.135,2.795 -4.762,2.63 -4.307,2.443 -3.851,2.216 -3.375,1.967 -3.106,1.822 -2.857,1.698 -2.588,1.553 -2.174,1.346 -1.781,1.118 -1.367,0.87 -0.911,0.6 -0.456,0.311 0,0"
               style="fill:#6dcff6;fill-opacity:1;fill-rule:nonzero;stroke:none"
               id="path107" /></g><g
             id="g109"
             transform="translate(206.5098,312.1884)"><path
               d="m 0,0 -2.878,-2.298 -29.03,-22.736 c 1.097,2.319 2.07,4.121 2.816,6.233 L -2.464,2.505 Z"
               style="fill:#6dcff6;fill-opacity:1;fill-rule:nonzero;stroke:none"
               id="path111" /></g><g
             id="g113"
             transform="translate(77.8775,181.8847)"><path
               d="m 0,0 c 0,0 2.745,-11.374 19.215,-17.06 -3.436,4.15 -5.731,10.159 -5.673,19.995 z"
               style="fill:#ffffff;fill-opacity:1;fill-rule:nonzero;stroke:none"
               id="path115" /></g><g
             id="g117"
             transform="translate(118.0715,198.6177)"><path
               d="M 0,0 C 0,0 1.656,-7.511 12.287,-10.911 9.937,-5.855 8.372,0.211 8.372,7.561 4.768,5.398 2.031,2.549 0,0"
               style="fill:#ffffff;fill-opacity:1;fill-rule:nonzero;stroke:none"
               id="path119" /></g><g
             id="g121"
             transform="translate(130.9929,209.1194)"><path
               d="M 0,0 C 0,0 1.334,-6.653 9.904,-10.738 8.503,-6.208 7.884,-1.338 8.727,4.856 5.866,3.798 2.857,2.296 0,0"
               style="fill:#ffffff;fill-opacity:1;fill-rule:nonzero;stroke:none"
               id="path123" /></g><g
             id="g125"
             transform="translate(108.1963,187.949)"><path
               d="m 0,0 -6.417,-1.386 c 0,0 3.634,-11.335 18.372,-16.733 C 8.519,-13.443 6.054,-4.771 6.112,6.31 4.158,4.643 1.844,2.217 0,0"
               style="fill:#ffffff;fill-opacity:1;fill-rule:nonzero;stroke:none"
               id="path127" /></g><g
             id="g129"
             transform="translate(134.3854,141.0301)"><path
               d="M 0,0 C 0,0 -8.434,7.125 -7.351,19.456 -4.882,14.911 -0.29,9.724 8.675,3.211 8.009,0.439 3.693,-1.642 0,0"
               style="fill:#ffffff;fill-opacity:1;fill-rule:nonzero;stroke:none"
               id="path131" /></g><g
             id="g133"
             transform="translate(150.3203,141.6728)"><path
               d="M 0,0 C 0,0 -7.821,6.968 -6.542,19.482 -4.171,14.995 0.293,9.951 9.07,3.759 7.249,0.285 2.777,-1.875 0,0"
               style="fill:#ffffff;fill-opacity:1;fill-rule:nonzero;stroke:none"
               id="path135" /></g><g
             id="g137"
             transform="translate(96.6903,164.9796)"><path
               d="M 0,0 C 0.139,-0.05 0.261,-0.106 0.403,-0.155 -3.034,3.995 -5.329,10.004 -5.271,19.84 L -8.599,19.119 C -8.502,10.135 -5.648,4.163 0,0"
               style="fill:#bcbec0;fill-opacity:1;fill-rule:nonzero;stroke:none"
               id="path139" /></g><g
             id="g141"
             transform="translate(130.3584,187.7071)"><path
               d="M 0,0 C -2.35,5.055 -3.915,11.122 -3.915,18.471 -4.774,17.956 -5.576,17.397 -6.339,16.818 -6.113,9.924 -3.282,4.87 0,0"
               style="fill:#bcbec0;fill-opacity:1;fill-rule:nonzero;stroke:none"
               id="path143" /></g><g
             id="g145"
             transform="translate(137.086,212.8641)"><path
               d="M 0,0 C -0.741,-6.007 0.908,-9.925 3.811,-14.483 2.41,-9.953 1.791,-5.082 2.634,1.112 1.767,0.791 0.886,0.412 0,0"
               style="fill:#bcbec0;fill-opacity:1;fill-rule:nonzero;stroke:none"
               id="path147" /></g><g
             id="g149"
             transform="translate(119.4819,170.1043)"><path
               d="M 0,0 C 0.229,-0.089 0.436,-0.188 0.67,-0.274 -2.767,4.402 -5.232,13.074 -5.173,24.155 -6.133,23.336 -7.179,22.332 -8.214,21.263 -7.922,11.687 -5.264,4.521 0,0"
               style="fill:#bcbec0;fill-opacity:1;fill-rule:nonzero;stroke:none"
               id="path151" /></g><g
             id="g153"
             transform="translate(127.1125,160.3542)"><path
               d="m 0,0 c 1.68,-5.255 4.181,-10.613 12.847,-16.909 -0.295,-1.227 -1.326,-2.295 -2.681,-2.988 2.773,0.052 5.286,1.724 5.782,3.784 C 7.067,-9.662 2.485,-4.513 0,0"
               style="fill:#bcbec0;fill-opacity:1;fill-rule:nonzero;stroke:none"
               id="path155" /></g><g
             id="g157"
             transform="translate(143.7779,161.1549)"><path
               d="m 0,0 c -0.003,-0.025 -0.002,-0.049 -0.004,-0.074 1.8,-4.44 4.521,-10.804 12.515,-16.445 -0.828,-1.58 -2.214,-2.862 -3.73,-3.642 2.537,-0.07 5.448,1.799 6.831,4.438 C 6.835,-9.531 2.371,-4.487 0,0"
               style="fill:#bcbec0;fill-opacity:1;fill-rule:nonzero;stroke:none"
               id="path159" /></g><g
             id="g161"
             transform="translate(165.5297,206.5308)"><path
               d="m 0,0 c 0,0 -4.792,1.38 -10.575,-1.273 -3.63,-1.664 -11.312,-6.971 -11.328,-21.086 -0.016,-13.618 -14.424,-19.196 -14.424,-19.196 0,0 21.077,-7.786 30.299,13.294 0,0 3.35,18.899 20.143,22.408 0,0 -18.44,8.971 -30.225,-20.492 C -15.182,-11.139 -11.507,-5.61 0,0"
               style="fill:#ed1c24;fill-opacity:1;fill-rule:nonzero;stroke:none"
               id="path163" /></g><g
             id="g165"
             transform="translate(176.7948,201.5721)"><path
               d="m 0,0 c -15.604,-4.22 -18.808,-22.038 -18.808,-22.038 -7.203,-16.464 -21.637,-15.319 -27.613,-14.029 -0.717,-0.349 -1.171,-0.529 -1.171,-0.529 0,0 21.077,-7.786 30.299,13.294 0,0 3.35,18.898 20.143,22.408 0,0 -1.071,0.516 -2.85,0.894"
               style="fill:#ba1319;fill-opacity:1;fill-rule:nonzero;stroke:none"
               id="path167" /></g><g
             id="g169"
             transform="translate(145.9684,184.106)"><path
               d="m 0,0 c 0.016,14.116 7.698,19.422 11.328,21.087 2.538,1.164 4.854,1.532 6.689,1.6 -1.86,0.206 -5.212,0.216 -9.031,-1.535 C 5.356,19.488 -2.326,14.181 -2.342,0.066 -2.357,-13.552 -16.765,-19.13 -16.765,-19.13 c 0,0 0.873,-0.319 2.326,-0.653 C -14.424,-19.777 -0.015,-13.611 0,0"
               style="fill:#ba1319;fill-opacity:1;fill-rule:nonzero;stroke:none"
               id="path171" /></g><g
             id="g173"
             transform="translate(229.4106,293.6148)"><path
               d="M 0,0 C 0,0 24.417,13.249 44.909,32.02 58.955,44.886 71.694,72.46 102.349,81.735 88.218,70.624 82.399,65.835 66.309,32.898 63.759,27.679 58.411,20.842 54.444,16.599 47.021,8.657 35.04,-3.088 13.906,-16.636 Z"
               style="fill:#ffffff;fill-opacity:1;fill-rule:nonzero;stroke:none"
               id="path175" /></g><g
             id="g177"
             transform="translate(291.8966,331.7188)"><path
               d="m 0,0 c -2.549,-5.219 -7.898,-12.056 -11.864,-16.299 -7.338,-7.85 -20.15,-20.124 -40.855,-33.49 l 4.139,-4.951 c 21.134,13.548 33.115,25.293 40.539,33.235 3.966,4.243 9.314,11.08 11.864,16.299 C 18.868,25.592 24.934,31.78 37.211,41.538 24.067,33.724 14.286,29.245 0,0"
               style="fill:#bcbec0;fill-opacity:1;fill-rule:nonzero;stroke:none"
               id="path179" /></g><g
             id="g181"
             transform="translate(275.3581,373.7274)"><path
               d="m 0,0 c -12.879,-10.125 -20.686,-15.923 -32.157,-44.249 -0.021,-0.021 -0.021,-0.083 -0.062,-0.145 -0.041,-0.104 -0.124,-0.269 -0.228,-0.476 v -0.021 c -1.511,-3.21 -8.489,-17.311 -12.548,-23.626 -1.511,1.18 -3.085,2.05 -4.617,2.692 -0.207,0.124 -0.394,0.207 -0.601,0.248 -5.383,2.112 -10.146,1.533 -10.146,1.533 l -5.404,6.936 c 4.369,3.707 8.945,7.703 13.397,11.761 C -39.57,-33.606 -34.352,-9.753 0,0"
               style="fill:#ffffff;fill-opacity:1;fill-rule:nonzero;stroke:none"
               id="path183" /></g><g
             id="g185"
             transform="translate(275.3581,373.7274)"><path
               d="m 0,0 c -12.879,-10.125 -20.686,-15.923 -32.157,-44.249 -0.021,-0.021 -0.021,-0.083 -0.062,-0.145 -0.041,-0.104 -0.124,-0.269 -0.228,-0.476 v -0.021 c -1.511,-3.21 -8.489,-17.311 -12.548,-23.626 -1.511,1.18 -3.085,2.05 -4.617,2.692 -0.207,0.124 -0.394,0.207 -0.601,0.248 7.807,11.244 13.708,22.073 14.039,22.839 10.56,26.132 20.976,34.973 35.325,42.469 C -0.559,-0.186 -0.29,-0.083 0,0"
               style="fill:#bcbec0;fill-opacity:1;fill-rule:nonzero;stroke:none"
               id="path187" /></g><g
             id="g189"
             transform="translate(235.2847,262.148)"><path
               d="m 0,0 3.327,-11.593 c 0,0 21.626,10.931 27.083,21.258 C 30.41,9.665 17.539,2.898 0,0"
               style="fill:#ffffff;fill-opacity:1;fill-rule:nonzero;stroke:none"
               id="path191" /></g><g
             id="g193"
             transform="translate(240.2886,243.9278)"><path
               d="m 0,0 2.976,-10.419 c 0,0 19.343,9.891 24.224,19.173 C 27.2,8.754 15.687,2.605 0,0"
               style="fill:#ffffff;fill-opacity:1;fill-rule:nonzero;stroke:none"
               id="path195" /></g><g
             id="g197"
             transform="translate(244.7585,227.9046)"><path
               d="m 0,0 3.061,-9.967 c 0,0 16.981,9.183 21.362,17.496 C 24.423,7.529 14.082,2.333 0,0"
               style="fill:#ffffff;fill-opacity:1;fill-rule:nonzero;stroke:none"
               id="path199" /></g><g
             id="g201"
             transform="translate(237.9315,252.926)"><path
               d="m 0,0 0.68,-2.371 c 0,0 21.626,10.931 27.083,21.259 0,0 -0.006,-0.004 -0.006,-0.004 C 21.123,10.117 3.202,1.494 0,0"
               style="fill:#bcbec0;fill-opacity:1;fill-rule:nonzero;stroke:none"
               id="path203" /></g><g
             id="g205"
             transform="translate(242.5869,235.881)"><path
               d="m 0,0 0.677,-2.372 c 0,0 19.344,9.891 24.225,19.173 0,0 -0.041,-0.022 -0.059,-0.031 C 18.773,9.017 3.015,1.409 0,0"
               style="fill:#bcbec0;fill-opacity:1;fill-rule:nonzero;stroke:none"
               id="path207" /></g><g
             id="g209"
             transform="translate(247.0954,220.2954)"><path
               d="m 0,0 0.724,-2.358 c 0,0 16.384,8.874 21.102,17.073 C 16.024,7.906 2.546,1.223 0,0"
               style="fill:#bcbec0;fill-opacity:1;fill-rule:nonzero;stroke:none"
               id="path211" /></g><g
             id="g213"
             transform="translate(279.6443,184.8244)"><path
               d="m 0,0 c -12.32,-15.675 -23.75,-23.129 -33.089,-26.4 -14.308,-5.011 -23.688,-0.249 -23.688,-0.249 l -7.93,18.035 c 9.566,-2.485 18.242,-1.263 25.759,1.76 19.049,7.62 30.707,26.711 30.707,26.711 z"
               style="fill:#fff200;fill-opacity:1;fill-rule:nonzero;stroke:none"
               id="path215" /></g><g
             id="g217"
             transform="translate(289.956,150.659)"><path
               d="m 0,0 c -15.157,-17.311 -28.202,-23.854 -38.783,-25.324 -8.696,-1.221 -15.757,0.973 -20.934,3.396 l -4.141,19.692 c 8.137,-2.112 15.675,-1.574 22.404,0.455 21.162,6.398 34.455,27.54 34.455,27.54 z"
               style="fill:#fff200;fill-opacity:1;fill-rule:nonzero;stroke:none"
               id="path219" /></g><g
             id="g221"
             transform="translate(293.9523,112.0626)"><path
               d="m 0,0 c -16.089,-14.764 -31.556,-19.609 -43.939,-19.774 -9.856,-0.166 -17.745,2.65 -22.404,5.777 l 2.899,21.327 c 7.247,-3.106 14.308,-3.81 20.913,-3.065 22.529,2.589 39.674,22.239 39.674,22.239 z"
               style="fill:#fff200;fill-opacity:1;fill-rule:nonzero;stroke:none"
               id="path223" /></g><g
             id="g225"
             transform="translate(295.6502,73.6318)"><path
               d="m 0,0 c -21.41,-14.287 -39.57,-17.393 -53.194,-15.902 -9.836,1.056 -17.311,4.534 -21.908,7.951 l 5.55,23.274 c 7.682,-3.81 15.364,-5.281 22.652,-5.301 24.889,-0.042 45.202,17.041 45.202,17.041 z"
               style="fill:#fff200;fill-opacity:1;fill-rule:nonzero;stroke:none"
               id="path227" /></g><g
             id="g229"
             transform="translate(157.0991,249.032)"><path
               d="m 0,0 c -4.106,-0.111 -7.573,-0.454 -11.043,-2.861 -0.068,-2.131 3.455,-4.165 6.202,-1.564 0,0 0.548,-5.276 -4.582,-5.555 -3.088,-0.168 -5.538,2.169 -5.538,5.331 -2.269,-0.962 -3.31,-2.636 -4.168,-4.185 3.426,-4.741 8.795,-5.325 11.926,-4.387 3.326,0.998 5.037,2.54 6.248,4.408 C 1.96,-4.315 0,0 0,0"
               style="fill:#fff200;fill-opacity:1;fill-rule:nonzero;stroke:none"
               id="path231" /></g><g
             id="g233"
             transform="translate(117.6068,239.0588)"><path
               d="m 0,0 c -0.232,5.828 0.108,15.451 10.274,20.479 l 0.327,0.214 0.383,0.079 c 0.27,0.055 27.133,5.735 38.833,18.013 l 3.806,3.994 -0.238,-5.511 c -0.01,-0.244 -0.227,-4.794 -1.793,-10.393 6.577,3.84 18.493,11.882 23.695,22.271 l 1.335,2.667 2.031,-2.181 c 0.217,-0.233 4.39,-4.819 4.126,-12.194 l 22.303,16.43 2.457,-3.333 -32.208,-23.197 1.302,4.111 c 1.494,4.8 1.741,10.468 0.629,12.788 C 68.306,30.044 49.646,21.057 48.803,20.657 l -7.043,-2.94 2.902,4.816 c 1.299,3.131 3.423,7.064 3.895,9.589 C 35.754,22.222 15.458,17.507 12.225,16.803 4.589,13.02 2.148,6.661 0,0"
               style="fill:#6dcff6;fill-opacity:1;fill-rule:nonzero;stroke:none"
               id="path235" /></g><g
             id="g237"
             transform="translate(117.6068,239.0588)"><path
               d="m 0,0 c -0.232,5.828 0.108,15.451 10.274,20.479 l 0.327,0.214 0.383,0.079 c 0.27,0.055 27.133,5.735 38.833,18.013 l 3.806,3.994 -0.238,-5.511 c -0.01,-0.244 -0.227,-4.794 -1.793,-10.393 6.577,3.84 18.493,11.882 23.695,22.271 l 1.335,2.667 2.031,-2.181 c 0.217,-0.233 4.39,-4.819 4.126,-12.194 l 22.303,16.43 2.457,-3.333 -32.208,-23.197 1.302,4.111 c 1.494,4.8 1.741,10.468 0.629,12.788 C 68.306,30.044 49.646,21.057 48.803,20.657 l -7.043,-2.94 2.902,4.816 c 1.299,3.131 3.423,7.064 3.895,9.589 C 35.754,22.222 15.458,17.507 12.225,16.803 4.589,13.02 2.148,6.661 0,0"
               style="fill:#6dcff6;fill-opacity:1;fill-rule:nonzero;stroke:none"
               id="path239" /></g><g
             id="g241"
             transform="translate(296.0209,180.0046)"><path
               d="m 0,0 c 3.569,0.829 5.783,3.905 6.578,9.138 l 0.473,3.112 2.731,-1.565 c 1.776,-1.015 6.557,-1.875 9.758,0.046 1.616,0.968 2.606,2.59 3.007,4.792 -2.211,5.916 -4.802,11.898 -7.84,17.839 C 13.778,30.75 12.186,29.146 10.71,28.196 7.531,26.155 3.586,26.079 0.647,26.773 -0.794,19.295 -5.125,16.975 -7.75,16.259 c -0.796,-0.218 -1.612,-0.339 -2.428,-0.38 -0.752,-0.038 -1.498,0.015 -2.233,0.106 2.029,-4.582 4.048,-9.656 5.994,-15.254 C -4.694,-0.029 -2.288,-0.534 0,0"
               style="fill:#00aeef;fill-opacity:1;fill-rule:nonzero;stroke:none"
               id="path243" /></g><g
             id="g245"
             transform="translate(309.8803,109.478)"><path
               d="M 0,0 C 4.342,0.987 5.888,5.532 6.42,9.17 L 6.878,12.3 9.6,10.687 c 1.664,-0.983 6.171,-1.836 9.235,-0.033 1.488,0.878 2.456,2.321 2.918,4.286 -0.121,3.944 -0.354,10.515 -1.2,18.858 C 19.855,33.074 19.118,32.505 18.411,32.089 14.977,30.067 10.665,30.182 7.562,31.051 5.682,23.715 1.133,21.574 -1.587,20.957 -2.485,20.753 -3.403,20.66 -4.314,20.66 c -1.382,0 -2.742,0.231 -4.014,0.602 0.97,-6.517 1.79,-13.375 2.433,-20.573 C -4.274,-0.017 -2.091,-0.476 0,0"
               style="fill:#00aeef;fill-opacity:1;fill-rule:nonzero;stroke:none"
               id="path247" /></g><g
             id="g249"
             transform="translate(284.5216,227.5342)"><path
               d="m 0,0 c -1.464,-7.474 -5.801,-9.78 -8.428,-10.488 -0.798,-0.216 -1.614,-0.335 -2.43,-0.374 -0.433,-0.02 -0.866,-0.006 -1.296,0.018 2.818,-4.115 5.893,-9.395 8.999,-15.841 1.564,-0.698 3.769,-1.146 5.814,-0.591 4.141,1.132 5.4,5.797 5.724,9.512 l 0.279,3.179 2.789,-1.55 c 1.558,-0.863 5.733,-1.507 8.518,0.286 2.175,1.398 3.13,4.071 2.845,7.935 -2.677,4.696 -5.67,9.33 -8.98,13.86 C 12.878,3.698 11.426,2.262 10.066,1.393 6.881,-0.641 2.936,-0.702 0,0"
               style="fill:#00aeef;fill-opacity:1;fill-rule:nonzero;stroke:none"
               id="path251" /></g><g
             id="g253"
             transform="translate(303.1862,158.2327)"><path
               d="m 0,0 c 3.52,0.807 5.702,3.888 6.485,9.16 l 0.463,3.122 2.726,-1.593 c 1.704,-0.995 6.32,-1.852 9.437,-0.002 1.586,0.941 2.561,2.536 2.979,4.695 -1.262,5.176 -2.788,10.54 -4.616,15.995 C 16.581,30.209 15.555,29.381 14.591,28.803 10.992,26.643 6.407,26.758 3.139,27.654 1.204,20.383 -3.422,18.213 -6.19,17.57 c -0.977,-0.226 -1.977,-0.332 -2.97,-0.332 -0.936,0 -1.86,0.109 -2.759,0.277 1.613,-5.01 3.154,-10.402 4.594,-16.156 C -5.715,0.318 -2.77,-0.635 0,0"
               style="fill:#00aeef;fill-opacity:1;fill-rule:nonzero;stroke:none"
               id="path255" /></g><g
             id="g257"
             transform="translate(307.3547,134.5661)"><path
               d="m 0,0 c 4.337,0.985 5.88,5.532 6.411,9.174 l 0.456,3.132 2.722,-1.615 c 1.655,-0.985 6.144,-1.834 9.199,-0.041 2.081,1.226 3.154,3.551 3.222,6.891 -0.655,4.678 -1.509,9.707 -2.623,14.998 C 18.653,31.747 17.871,31.127 17.121,30.681 13.617,28.603 9.188,28.718 6.014,29.595 4.11,22.288 -0.474,20.134 -3.215,19.507 c -0.931,-0.214 -1.884,-0.311 -2.828,-0.311 -1.451,0 -2.878,0.244 -4.206,0.64 C -8.892,13.935 -7.652,7.666 -6.562,1.029 -4.92,0.143 -2.398,-0.551 0,0"
               style="fill:#00aeef;fill-opacity:1;fill-rule:nonzero;stroke:none"
               id="path259" /></g><g
             id="g261"
             transform="translate(319.9807,115.433)"><path
               d="m 0,0 c -1.884,-7.33 -6.437,-9.471 -9.16,-10.092 -0.904,-0.205 -1.827,-0.3 -2.744,-0.3 -1.268,0 -2.516,0.197 -3.698,0.513 0.535,-6.962 0.907,-14.223 1.077,-21.803 9.276,8.743 17.532,20.72 23.526,31.873 C 5.957,-0.897 2.568,-0.712 0,0"
               style="fill:#00aeef;fill-opacity:1;fill-rule:nonzero;stroke:none"
               id="path263" /></g><g
             id="g265"
             transform="translate(252.3659,234.577)"><path
               d="m 0,0 c 0,0 10.557,1.495 23.684,8.338 0,0 -2.141,-11.125 -10.136,-18.248 0.708,-0.696 1.467,-1.52 2.26,-2.448 1.486,-0.976 4.277,-1.863 6.84,-1.175 4.145,1.119 5.417,5.78 5.753,9.494 l 0.289,3.178 2.784,-1.558 c 1.553,-0.866 5.729,-1.525 8.519,0.26 1.625,1.038 2.572,2.79 2.837,5.214 -7.874,9.974 -17.427,19.315 -29.119,27.345 0,0 -6.615,-8.908 -19.149,-14.087 0,0 7.66,0.284 27.519,7.518 C 22.081,23.831 17.005,7.885 0,0"
               style="fill:#00aeef;fill-opacity:1;fill-rule:nonzero;stroke:none"
               id="path267" /></g><g
             id="g269"
             transform="translate(318.5721,195.5295)"><path
               d="m 0,0 c -0.414,-2.195 -1.387,-3.831 -3.002,-4.804 -3.21,-1.905 -7.993,-1.056 -9.774,-0.041 l -2.733,1.573 -0.456,-3.106 c -0.807,-5.238 -3.023,-8.324 -6.584,-9.152 -2.299,-0.538 -4.7,-0.02 -6.419,0.746 -0.393,1.097 -0.766,2.195 -1.16,3.251 1.678,-0.56 3.769,-0.829 5.757,-0.394 3.748,0.828 6.067,3.914 6.916,9.152 l 0.497,3.106 2.857,-1.573 c 1.884,-1.015 6.895,-1.864 10.27,0.062 1.408,0.787 2.361,2.05 2.858,3.706 C -0.642,1.677 -0.311,0.849 0,0"
               style="fill:#6dcff6;fill-opacity:1;fill-rule:nonzero;stroke:none"
               id="path271" /></g><g
             id="g273"
             transform="translate(331.6377,124.4241)"><path
               d="m 0,0 c -0.476,-1.967 -1.429,-3.416 -2.92,-4.286 -3.064,-1.802 -7.578,-0.953 -9.235,0.021 l -2.733,1.615 -0.455,-3.127 c -0.518,-3.644 -2.071,-8.179 -6.419,-9.173 -2.092,-0.476 -4.266,-0.021 -5.881,0.683 -0.103,1.077 -0.207,2.154 -0.31,3.231 1.511,-0.456 3.333,-0.684 5.073,-0.311 4.576,0.994 6.191,5.549 6.75,9.173 l 0.497,3.127 2.857,-1.616 c 1.74,-0.973 6.481,-1.822 9.711,-0.02 1.45,0.807 2.423,2.132 2.941,3.892 C -0.062,1.988 -0.021,0.932 0,0"
               style="fill:#6dcff6;fill-opacity:1;fill-rule:nonzero;stroke:none"
               id="path275" /></g><g
             id="g277"
             transform="translate(304.4919,211.6803)"><path
               d="m 0,0 c -2.795,-1.781 -6.957,-1.139 -8.51,-0.29 l -2.796,1.553 -0.29,-3.168 c -0.248,-3.002 -1.118,-6.585 -3.602,-8.469 -0.083,-0.062 -0.187,-0.124 -0.29,-0.186 -0.373,-0.29 -0.787,-0.497 -1.243,-0.642 -0.207,-0.104 -0.393,-0.166 -0.58,-0.228 -2.049,-0.538 -4.244,-0.103 -5.818,0.601 -0.538,1.118 -1.077,2.195 -1.615,3.251 1.512,-0.477 3.396,-0.684 5.156,-0.228 4.348,1.118 5.673,5.798 6.025,9.504 l 0.29,3.168 2.92,-1.532 C -8.717,2.464 -4.328,1.822 -1.387,3.603 0.559,4.804 1.594,6.957 1.656,9.96 2.05,9.276 2.443,8.614 2.837,7.931 3.127,4.079 2.174,1.408 0,0"
               style="fill:#6dcff6;fill-opacity:1;fill-rule:nonzero;stroke:none"
               id="path279" /></g><g
             id="g281"
             transform="translate(325.2809,173.6222)"><path
               d="m 0,0 c -0.414,-2.174 -1.387,-3.769 -2.982,-4.7 -3.126,-1.843 -7.744,-0.994 -9.442,0 l -2.733,1.594 -0.455,-3.127 c -0.787,-5.259 -2.962,-8.344 -6.482,-9.152 -2.774,-0.642 -5.714,0.311 -7.33,1.346 -0.248,1.036 -0.517,2.05 -0.786,3.065 1.76,-0.787 4.265,-1.326 6.667,-0.808 3.686,0.808 5.984,3.893 6.812,9.152 l 0.477,3.127 2.878,-1.594 c 1.781,-0.994 6.646,-1.843 9.918,0 1.346,0.766 2.298,1.987 2.837,3.582 C -0.414,1.656 -0.207,0.828 0,0"
               style="fill:#6dcff6;fill-opacity:1;fill-rule:nonzero;stroke:none"
               id="path283" /></g><g
             id="g285"
             transform="translate(329.3599,152.1084)"><path
               d="m 0,0 c -0.062,-3.334 -1.139,-5.673 -3.209,-6.895 -3.065,-1.781 -7.558,-0.932 -9.215,0.041 l -2.712,1.615 -0.456,-3.126 c -0.538,-3.645 -2.07,-8.2 -6.419,-9.173 -2.402,-0.559 -4.907,0.145 -6.564,1.014 -0.165,1.056 -0.352,2.113 -0.538,3.148 1.657,-0.621 3.81,-1.015 5.86,-0.559 4.555,0.994 6.191,5.528 6.75,9.173 l 0.476,3.126 2.858,-1.615 c 1.739,-0.973 6.46,-1.822 9.67,-0.041 1.78,1.014 2.857,2.733 3.23,5.135 C -0.166,1.222 -0.083,0.601 0,0"
               style="fill:#6dcff6;fill-opacity:1;fill-rule:nonzero;stroke:none"
               id="path287" /></g><g
             id="g289"
             transform="translate(295.1946,237.6253)"><path
               d="m 0,0 c -0.269,-2.423 -1.201,-4.162 -2.837,-5.197 -2.795,-1.802 -6.957,-1.139 -8.51,-0.269 l -2.795,1.552 -0.29,-3.168 c -0.187,-1.987 -0.621,-4.224 -1.615,-6.067 0,-0.02 -0.021,-0.041 -0.042,-0.062 -0.869,-1.573 -2.195,-2.857 -4.1,-3.375 -0.331,-0.103 -0.683,-0.165 -1.035,-0.186 h -0.041 c -2.216,-0.249 -4.473,0.538 -5.757,1.367 -0.683,0.807 -1.366,1.553 -1.987,2.174 1.987,-0.207 4.348,-0.145 5.922,0.248 4.369,1.118 5.694,5.798 6.046,9.504 l 0.31,3.168 2.92,-1.553 c 1.636,-0.869 6.026,-1.511 8.966,0.27 1.429,0.869 2.36,2.256 2.795,4.141 C -1.367,1.698 -0.683,0.849 0,0"
               style="fill:#6dcff6;fill-opacity:1;fill-rule:nonzero;stroke:none"
               id="path291" /></g><g
             id="g293"
             transform="translate(318.5721,195.5295)"><path
               d="m 0,0 c -0.414,-2.195 -1.387,-3.831 -3.002,-4.804 -3.21,-1.905 -7.993,-1.056 -9.774,-0.041 l -2.733,1.573 -0.456,-3.106 c -0.807,-5.238 -3.023,-8.324 -6.584,-9.152 -2.299,-0.538 -4.7,-0.02 -6.419,0.746 -0.393,1.097 -0.766,2.195 -1.16,3.251 1.678,-0.56 3.769,-0.829 5.757,-0.394 3.748,0.828 6.067,3.914 6.916,9.152 l 0.497,3.106 2.857,-1.573 c 1.884,-1.015 6.895,-1.864 10.27,0.062 1.408,0.787 2.361,2.05 2.858,3.706 C -0.642,1.677 -0.311,0.849 0,0"
               style="fill:#6dcff6;fill-opacity:1;fill-rule:nonzero;stroke:none"
               id="path295" /></g><g
             id="g297"
             transform="translate(331.6377,124.4241)"><path
               d="m 0,0 c -0.476,-1.967 -1.429,-3.416 -2.92,-4.286 -3.064,-1.802 -7.578,-0.953 -9.235,0.021 l -2.733,1.615 -0.455,-3.127 c -0.518,-3.644 -2.071,-8.179 -6.419,-9.173 -2.092,-0.476 -4.266,-0.021 -5.881,0.683 -0.103,1.077 -0.207,2.154 -0.31,3.231 1.511,-0.456 3.333,-0.684 5.073,-0.311 4.576,0.994 6.191,5.549 6.75,9.173 l 0.497,3.127 2.857,-1.616 c 1.74,-0.973 6.481,-1.822 9.711,-0.02 1.45,0.807 2.423,2.132 2.941,3.892 C -0.062,1.988 -0.021,0.932 0,0"
               style="fill:#6dcff6;fill-opacity:1;fill-rule:nonzero;stroke:none"
               id="path299" /></g><g
             id="g301"
             transform="translate(304.4919,211.6803)"><path
               d="m 0,0 c -2.795,-1.781 -6.957,-1.139 -8.51,-0.29 l -2.796,1.553 -0.29,-3.168 c -0.248,-3.002 -1.118,-6.585 -3.602,-8.469 -0.083,-0.062 -0.187,-0.124 -0.29,-0.186 -0.373,-0.29 -0.787,-0.497 -1.243,-0.642 -0.207,-0.104 -0.393,-0.166 -0.58,-0.228 -2.049,-0.538 -4.244,-0.103 -5.818,0.601 -0.538,1.118 -1.077,2.195 -1.615,3.251 1.512,-0.477 3.396,-0.684 5.156,-0.228 4.348,1.118 5.673,5.798 6.025,9.504 l 0.29,3.168 2.92,-1.532 C -8.717,2.464 -4.328,1.822 -1.387,3.603 0.559,4.804 1.594,6.957 1.656,9.96 2.05,9.276 2.443,8.614 2.837,7.931 3.127,4.079 2.174,1.408 0,0"
               style="fill:#6dcff6;fill-opacity:1;fill-rule:nonzero;stroke:none"
               id="path303" /></g><g
             id="g305"
             transform="translate(325.2809,173.6222)"><path
               d="m 0,0 c -0.414,-2.174 -1.387,-3.769 -2.982,-4.7 -3.126,-1.843 -7.744,-0.994 -9.442,0 l -2.733,1.594 -0.455,-3.127 c -0.787,-5.259 -2.962,-8.344 -6.482,-9.152 -2.774,-0.642 -5.714,0.311 -7.33,1.346 -0.248,1.036 -0.517,2.05 -0.786,3.065 1.76,-0.787 4.265,-1.326 6.667,-0.808 3.686,0.808 5.984,3.893 6.812,9.152 l 0.477,3.127 2.878,-1.594 c 1.781,-0.994 6.646,-1.843 9.918,0 1.346,0.766 2.298,1.987 2.837,3.582 C -0.414,1.656 -0.207,0.828 0,0"
               style="fill:#6dcff6;fill-opacity:1;fill-rule:nonzero;stroke:none"
               id="path307" /></g><g
             id="g309"
             transform="translate(329.3599,152.1084)"><path
               d="m 0,0 c -0.062,-3.334 -1.139,-5.673 -3.209,-6.895 -3.065,-1.781 -7.558,-0.932 -9.215,0.041 l -2.712,1.615 -0.456,-3.126 c -0.538,-3.645 -2.07,-8.2 -6.419,-9.173 -2.402,-0.559 -4.907,0.145 -6.564,1.014 -0.165,1.056 -0.352,2.113 -0.538,3.148 1.657,-0.621 3.81,-1.015 5.86,-0.559 4.555,0.994 6.191,5.528 6.75,9.173 l 0.476,3.126 2.858,-1.615 c 1.739,-0.973 6.46,-1.822 9.67,-0.041 1.78,1.014 2.857,2.733 3.23,5.135 C -0.166,1.222 -0.083,0.601 0,0"
               style="fill:#6dcff6;fill-opacity:1;fill-rule:nonzero;stroke:none"
               id="path311" /></g><g
             id="g313"
             transform="translate(295.1946,237.6253)"><path
               d="m 0,0 c -0.269,-2.423 -1.201,-4.162 -2.837,-5.197 -2.795,-1.802 -6.957,-1.139 -8.51,-0.269 l -2.795,1.552 -0.29,-3.168 c -0.187,-1.987 -0.621,-4.224 -1.615,-6.067 0,-0.02 -0.021,-0.041 -0.042,-0.062 -0.869,-1.573 -2.195,-2.857 -4.1,-3.375 -0.331,-0.103 -0.683,-0.165 -1.035,-0.186 h -0.041 c -2.216,-0.249 -4.473,0.538 -5.757,1.367 -0.683,0.807 -1.366,1.553 -1.987,2.174 1.987,-0.207 4.348,-0.145 5.922,0.248 4.369,1.118 5.694,5.798 6.046,9.504 l 0.31,3.168 2.92,-1.553 c 1.636,-0.869 6.026,-1.511 8.966,0.27 1.429,0.869 2.36,2.256 2.795,4.141 C -1.367,1.698 -0.683,0.849 0,0"
               style="fill:#6dcff6;fill-opacity:1;fill-rule:nonzero;stroke:none"
               id="path315" /></g><g
             id="g317"
             transform="translate(222.8677,158.1753)"><path
               d="M 0,0 -7.93,18.035 C 1.636,15.55 10.312,16.772 17.828,19.795 19.133,16.42 21.493,9.649 23.688,0.249 9.38,-4.762 0,0 0,0"
               style="fill:#e3d200;fill-opacity:1;fill-rule:nonzero;stroke:none"
               id="path319" /></g><g
             id="g321"
             transform="translate(226.0979,88.9543)"><path
               d="m 0,0 c 7.682,-3.81 15.364,-5.28 22.653,-5.301 -1.408,-8.344 -3.458,-17.02 -6.295,-25.924 -9.835,1.056 -17.31,4.535 -21.907,7.951 z"
               style="fill:#e3d200;fill-opacity:1;fill-rule:nonzero;stroke:none"
               id="path323" /></g><g
             id="g325"
             transform="translate(248.5021,148.8782)"><path
               d="m 0,0 c 1.222,-6.937 2.216,-14.846 2.671,-23.543 -8.696,-1.222 -15.757,0.973 -20.934,3.396 l -4.141,19.692 C -14.267,-2.568 -6.73,-2.029 0,0"
               style="fill:#e3d200;fill-opacity:1;fill-rule:nonzero;stroke:none"
               id="path327" /></g><g
             id="g329"
             transform="translate(251.4217,116.328)"><path
               d="m 0,0 c 0.041,-7.558 -0.373,-15.613 -1.408,-24.04 -9.856,-0.166 -17.745,2.65 -22.404,5.777 l 2.899,21.327 C -13.666,-0.041 -6.605,-0.745 0,0"
               style="fill:#e3d200;fill-opacity:1;fill-rule:nonzero;stroke:none"
               id="path331" /></g><g
             id="g333"
             transform="translate(340.9582,216.1317)"><path
               d="m 0,0 c 10.231,-2.059 16.977,-9.959 16.977,-9.959 -3.976,22.321 -44.48,37.531 -44.48,37.531 0,0 -13.902,4.375 -8.001,10.938 4.535,5.032 26.308,4.911 26.308,4.911 -21.224,14.101 -47.619,10.251 -47.619,10.251 0,0 -6.115,0.324 -6.115,6.115 0,7.684 15.841,14.901 15.841,14.901 -7.661,3.437 -14.825,2.795 -20.768,0.807 -5.463,-5.066 -12.093,-10.107 -17.846,-14.19 2.209,-1.193 4.096,-2.308 5.336,-3.069 6.971,2.705 11.909,5.105 11.909,5.105 -0.559,-2.588 -1.408,-6.75 -3.313,-10.043 53.733,-35.759 65.701,-93.405 68.435,-135.771 0.041,-0.621 0.082,-1.221 0.124,-1.801 0.103,0.331 0.207,0.683 0.31,1.077 0.021,0.145 0.063,0.31 0.104,0.476 1.884,9.38 -0.538,27.563 5.607,25.563 5.134,-1.671 8.225,-11.255 8.225,-11.255 0.341,34.326 -14.186,50.758 -14.186,50.758 C -9.547,-11.446 -12.118,2.438 0,0"
               style="fill:#e3d200;fill-opacity:1;fill-rule:nonzero;stroke:none"
               id="path335" /></g><g
             id="g337"
             transform="translate(250.2383,273.9507)"><path
               d="M 0,0 -11.572,-6.901 4.203,-2.137 Z"
               style="fill:#00aeef;fill-opacity:1;fill-rule:nonzero;stroke:none"
               id="path339" /></g><g
             id="g341"
             transform="translate(117.6361,243.1938)"><path
               d="m 0,0 c -0.232,5.828 0.694,15.451 10.86,20.479 l 0.328,0.214 0.382,0.079 c 0.27,0.055 27.134,5.735 38.833,18.013 l 3.806,3.994 -0.238,-5.511 c -0.01,-0.244 -0.226,-4.794 -1.792,-10.393 6.577,3.84 18.493,11.882 23.695,22.271 l 1.334,2.667 2.031,-2.181 c 0.218,-0.233 4.39,-4.819 4.127,-12.194 l 22.302,16.43 2.457,-3.333 -31.521,-23.221 1.877,6.026 c 1.495,4.8 0.479,8.577 -0.633,10.897 C 68.892,30.044 50.233,21.057 49.389,20.657 l -4.863,-2.309 2.062,4.972 c 1.298,3.13 2.083,6.277 2.556,8.802 C 36.341,22.222 16.044,17.507 12.812,16.803 5.176,13.02 2.148,6.661 0,0"
               style="fill:#231f20;fill-opacity:1;fill-rule:nonzero;stroke:none"
               id="path343" /></g><g
             id="g345"
             transform="translate(197.3251,217.9401)"><path
               d="m 0,0 c -10.269,2.057 -19.029,0.789 -23.623,-0.24 -2.091,1.012 -4.371,1.783 -6.84,2.434 0,0 9.909,3.909 27.48,0.892 C 0.103,0.874 0,0 0,0"
               style="fill:#6dcff6;fill-opacity:1;fill-rule:nonzero;stroke:none"
               id="path347" /></g><g
             id="g349"
             transform="translate(175.9386,181.7186)"><path
               d="M 0,0 C 5.007,5.624 14.788,11.676 21.387,12.475 15.541,13.499 9.794,13.678 5.858,10.935 Z"
               style="fill:#231f20;fill-opacity:1;fill-rule:nonzero;stroke:none"
               id="path351" /></g></g></g></g></g></svg>
